<?xml version="1.0" encoding="UTF-8" standalone="no"?>
<!-- Generated by graphviz version 14.1.5 (20260411.2331)
 -->

<!-- Title: hgn Pages: 1 -->

<svg
   width="519pt"
   height="421pt"
   viewBox="0.00 0.00 519.00 421.00"
   version="1.1"
   id="svg73"
   sodipodi:docname="gap-left-cayley-graph-color-light.svg"
   inkscape:version="1.4.4 (dcaf3e7, 2026-05-05)"
   xmlns:inkscape="http://www.inkscape.org/namespaces/inkscape"
   xmlns:sodipodi="http://sodipodi.sourceforge.net/DTD/sodipodi-0.dtd"
   xmlns="http://www.w3.org/2000/svg"
   xmlns:svg="http://www.w3.org/2000/svg">
  <defs
     id="defs73" />
  <sodipodi:namedview
     id="namedview73"
     pagecolor="#ffffff"
     bordercolor="#000000"
     borderopacity="0.25"
     inkscape:showpageshadow="2"
     inkscape:pageopacity="0.0"
     inkscape:pagecheckerboard="0"
     inkscape:deskcolor="#d1d1d1"
     inkscape:document-units="pt"
     inkscape:zoom="0.04631829"
     inkscape:cx="356.23077"
     inkscape:cy="280.66667"
     inkscape:window-width="944"
     inkscape:window-height="245"
     inkscape:window-x="0"
     inkscape:window-y="29"
     inkscape:window-maximized="0"
     inkscape:current-layer="svg73" />
  <g
     id="graph0"
     class="graph"
     transform="scale(1 1) rotate(0) translate(4 417.05)">
    <title
       id="title1">hgn</title>
    <polygon
       fill="none"
       stroke="none"
       points="-4,4 -4,-417.05 514.92,-417.05 514.92,4 -4,4"
       id="polygon1" />
    <!-- 1 -->
    <g
       id="node1"
       class="node">
      <title
         id="title2">1</title>
      <ellipse
         fill="none"
         stroke="rgb(88%, 89%, 91%)"
         cx="242"
         cy="-248.92"
         rx="18"
         ry="18"
         id="ellipse2" />
      <text fill="rgb(88%, 89%, 91%)"
         xml:space="preserve"
         text-anchor="middle"
         x="242"
         y="-243.87"
         font-family="Times,serif"
         font-size="14.00"
         id="text2">1</text>
    </g>
    <!-- 1&#45;&gt;1 -->
    <g
       id="edge1"
       class="edge">
      <title
         id="title3">1-&gt;1</title>
      <path
         fill="none"
         stroke="red"
         d="M259.04,-255.49C268.86,-256.83 278,-254.64 278,-248.92 278,-245.61 274.94,-243.48 270.47,-242.54"
         id="path3" />
      <polygon
         fill="red"
         stroke="red"
         points="270.61,-239.04 260.55,-242.37 270.49,-246.04 270.61,-239.04"
         id="polygon3" />
    </g>
    <!-- 1&#45;&gt;1 -->
    <g
       id="edge2"
       class="edge">
      <title
         id="title4">1-&gt;1</title>
      <path
         fill="none"
         stroke="green"
         d="M257.2,-259.01C275.11,-266.4 296,-263.03 296,-248.92 296,-237.56 282.47,-233.16 267.86,-235.73"
         id="path4" />
      <polygon
         fill="green"
         stroke="green"
         points="267.28,-232.25 258.66,-238.4 269.24,-238.97 267.28,-232.25"
         id="polygon4" />
    </g>
    <!-- 6 -->
    <g
       id="node6"
       class="node">
      <title
         id="title5">6</title>
      <ellipse
         fill="none"
         stroke="rgb(88%, 89%, 91%)"
         cx="242"
         cy="-172.66"
         rx="18"
         ry="18"
         id="ellipse5" />
      <text fill="rgb(88%, 89%, 91%)"
         xml:space="preserve"
         text-anchor="middle"
         x="242"
         y="-167.61"
         font-family="Times,serif"
         font-size="14.00"
         id="text5">6</text>
    </g>
    <!-- 1&#45;&gt;6 -->
    <g
       id="edge3"
       class="edge">
      <title
         id="title6">1-&gt;6</title>
      <path
         fill="none"
         stroke="blue"
         d="M236.28,-231.44C235.29,-222.59 235.01,-211.45 235.45,-201.32"
         id="path6" />
      <polygon
         fill="blue"
         stroke="blue"
         points="238.92,-201.83 236.17,-191.6 231.94,-201.31 238.92,-201.83"
         id="polygon6" />
    </g>
    <!-- 2 -->
    <g
       id="node2"
       class="node">
      <title
         id="title7">2</title>
      <ellipse
         fill="none"
         stroke="rgb(88%, 89%, 91%)"
         cx="332"
         cy="-248.92"
         rx="18"
         ry="18"
         id="ellipse7" />
      <text fill="rgb(88%, 89%, 91%)"
         xml:space="preserve"
         text-anchor="middle"
         x="332"
         y="-243.87"
         font-family="Times,serif"
         font-size="14.00"
         id="text7">2</text>
    </g>
    <!-- 2&#45;&gt;2 -->
    <g
       id="edge4"
       class="edge">
      <title
         id="title8">2-&gt;2</title>
      <path
         fill="none"
         stroke="red"
         d="M349.04,-255.49C358.86,-256.83 368,-254.64 368,-248.92 368,-245.61 364.94,-243.48 360.47,-242.54"
         id="path8" />
      <polygon
         fill="red"
         stroke="red"
         points="360.61,-239.04 350.55,-242.37 360.49,-246.04 360.61,-239.04"
         id="polygon8" />
    </g>
    <!-- 2&#45;&gt;2 -->
    <g
       id="edge5"
       class="edge">
      <title
         id="title9">2-&gt;2</title>
      <path
         fill="none"
         stroke="green"
         d="M347.2,-259.01C365.11,-266.4 386,-263.03 386,-248.92 386,-237.56 372.47,-233.16 357.86,-235.73"
         id="path9" />
      <polygon
         fill="green"
         stroke="green"
         points="357.28,-232.25 348.66,-238.4 359.24,-238.97 357.28,-232.25"
         id="polygon9" />
    </g>
    <!-- 7 -->
    <g
       id="node7"
       class="node">
      <title
         id="title10">7</title>
      <ellipse
         fill="none"
         stroke="rgb(88%, 89%, 91%)"
         cx="332"
         cy="-172.66"
         rx="18"
         ry="18"
         id="ellipse10" />
      <text fill="rgb(88%, 89%, 91%)"
         xml:space="preserve"
         text-anchor="middle"
         x="332"
         y="-167.61"
         font-family="Times,serif"
         font-size="14.00"
         id="text10">7</text>
    </g>
    <!-- 2&#45;&gt;7 -->
    <g
       id="edge6"
       class="edge">
      <title
         id="title11">2-&gt;7</title>
      <path
         fill="none"
         stroke="blue"
         d="M326.28,-231.44C325.29,-222.59 325.01,-211.45 325.45,-201.32"
         id="path11" />
      <polygon
         fill="blue"
         stroke="blue"
         points="328.92,-201.83 326.17,-191.6 321.94,-201.31 328.92,-201.83"
         id="polygon11" />
    </g>
    <!-- 3 -->
    <g
       id="node3"
       class="node">
      <title
         id="title12">3</title>
      <ellipse
         fill="none"
         stroke="rgb(88%, 89%, 91%)"
         cx="287"
         cy="-395.05"
         rx="18"
         ry="18"
         id="ellipse12" />
      <text fill="rgb(88%, 89%, 91%)"
         xml:space="preserve"
         text-anchor="middle"
         x="287"
         y="-390"
         font-family="Times,serif"
         font-size="14.00"
         id="text12">3</text>
    </g>
    <!-- 4 -->
    <g
       id="node4"
       class="node">
      <title
         id="title13">4</title>
      <ellipse
         fill="none"
         stroke="rgb(88%, 89%, 91%)"
         cx="18"
         cy="-172.66"
         rx="18"
         ry="18"
         id="ellipse13" />
      <text fill="rgb(88%, 89%, 91%)"
         xml:space="preserve"
         text-anchor="middle"
         x="18"
         y="-167.61"
         font-family="Times,serif"
         font-size="14.00"
         id="text13">4</text>
    </g>
    <!-- 3&#45;&gt;4 -->
    <g
       id="edge7"
       class="edge">
      <title
         id="title14">3-&gt;4</title>
      <path
         fill="none"
         stroke="red"
         d="M269.7,-389.39C227.03,-377.04 115.72,-339.48 54,-269.05 37.32,-250.02 28.05,-222.5 23.1,-201.9"
         id="path14" />
      <polygon
         fill="red"
         stroke="red"
         points="26.53,-201.2 20.99,-192.17 19.69,-202.69 26.53,-201.2"
         id="polygon14" />
    </g>
    <!-- 5 -->
    <g
       id="node5"
       class="node">
      <title
         id="title15">5</title>
      <ellipse
         fill="none"
         stroke="rgb(88%, 89%, 91%)"
         cx="426"
         cy="-323.05"
         rx="18"
         ry="18"
         id="ellipse15" />
      <text fill="rgb(88%, 89%, 91%)"
         xml:space="preserve"
         text-anchor="middle"
         x="426"
         y="-318"
         font-family="Times,serif"
         font-size="14.00"
         id="text15">5</text>
    </g>
    <!-- 3&#45;&gt;5 -->
    <g
       id="edge8"
       class="edge">
      <title
         id="title16">3-&gt;5</title>
      <path
         fill="none"
         stroke="green"
         d="M302.95,-386.02C326.72,-374.05 371.71,-351.39 400.21,-337.04"
         id="path16" />
      <polygon
         fill="green"
         stroke="green"
         points="401.53,-340.29 408.89,-332.67 398.38,-334.04 401.53,-340.29"
         id="polygon16" />
    </g>
    <!-- 8 -->
    <g
       id="node8"
       class="node">
      <title
         id="title17">8</title>
      <ellipse
         fill="none"
         stroke="rgb(88%, 89%, 91%)"
         cx="287"
         cy="-323.05"
         rx="18"
         ry="18"
         id="ellipse17" />
      <text fill="rgb(88%, 89%, 91%)"
         xml:space="preserve"
         text-anchor="middle"
         x="287"
         y="-318"
         font-family="Times,serif"
         font-size="14.00"
         id="text17">8</text>
    </g>
    <!-- 3&#45;&gt;8 -->
    <g
       id="edge9"
       class="edge">
      <title
         id="title18">3-&gt;8</title>
      <path
         fill="none"
         stroke="blue"
         d="M281.2,-377.81C280.33,-370.04 280.06,-360.51 280.39,-351.65"
         id="path18" />
      <polygon
         fill="blue"
         stroke="blue"
         points="283.87,-351.93 281.1,-341.71 276.89,-351.43 283.87,-351.93"
         id="polygon18" />
    </g>
    <!-- 4&#45;&gt;4 -->
    <g
       id="edge10"
       class="edge">
      <title
         id="title19">4-&gt;4</title>
      <path
         fill="none"
         stroke="red"
         d="M35.04,-179.41C44.86,-180.79 54,-178.54 54,-172.66 54,-169.25 50.94,-167.07 46.47,-166.09"
         id="path19" />
      <polygon
         fill="red"
         stroke="red"
         points="46.61,-162.59 36.55,-165.92 46.49,-169.59 46.61,-162.59"
         id="polygon19" />
    </g>
    <!-- 4&#45;&gt;4 -->
    <g
       id="edge11"
       class="edge">
      <title
         id="title20">4-&gt;4</title>
      <path
         fill="none"
         stroke="green"
         d="M33.2,-183.04C51.11,-190.64 72,-187.18 72,-172.66 72,-160.97 58.47,-156.45 43.86,-159.09"
         id="path20" />
      <polygon
         fill="green"
         stroke="green"
         points="43.23,-155.62 34.65,-161.84 45.24,-162.33 43.23,-155.62"
         id="polygon20" />
    </g>
    <!-- 13 -->
    <g
       id="node13"
       class="node">
      <title
         id="title21">13</title>
      <ellipse
         fill="none"
         stroke="rgb(88%, 89%, 91%)"
         cx="83"
         cy="-248.92"
         rx="20.13"
         ry="20.13"
         id="ellipse21" />
      <text fill="rgb(88%, 89%, 91%)"
         xml:space="preserve"
         text-anchor="middle"
         x="83"
         y="-243.87"
         font-family="Times,serif"
         font-size="14.00"
         id="text21">13</text>
    </g>
    <!-- 4&#45;&gt;13 -->
    <g
       id="edge12"
       class="edge">
      <title
         id="title22">4-&gt;13</title>
      <path
         fill="none"
         stroke="blue"
         d="M32.05,-184.14C42.29,-193.87 55.86,-208.76 66.55,-221.71"
         id="path22" />
      <polygon
         fill="blue"
         stroke="blue"
         points="63.8,-223.89 72.78,-229.51 69.27,-219.51 63.8,-223.89"
         id="polygon22" />
    </g>
    <!-- 5&#45;&gt;5 -->
    <g
       id="edge13"
       class="edge">
      <title
         id="title23">5-&gt;5</title>
      <path
         fill="none"
         stroke="red"
         d="M443.04,-329.43C452.86,-330.73 462,-328.6 462,-323.05 462,-319.84 458.94,-317.77 454.47,-316.85"
         id="path23" />
      <polygon
         fill="red"
         stroke="red"
         points="454.61,-313.35 444.55,-316.69 454.49,-320.35 454.61,-313.35"
         id="polygon23" />
    </g>
    <!-- 5&#45;&gt;5 -->
    <g
       id="edge14"
       class="edge">
      <title
         id="title24">5-&gt;5</title>
      <path
         fill="none"
         stroke="green"
         d="M441.48,-332.96C459.33,-339.99 480,-336.69 480,-323.05 480,-312.18 466.87,-307.87 452.51,-310.13"
         id="path24" />
      <polygon
         fill="green"
         stroke="green"
         points="451.67,-306.73 442.94,-312.74 453.51,-313.49 451.67,-306.73"
         id="polygon24" />
    </g>
    <!-- 14 -->
    <g
       id="node14"
       class="node">
      <title
         id="title25">14</title>
      <ellipse
         fill="none"
         stroke="rgb(88%, 89%, 91%)"
         cx="426"
         cy="-248.92"
         rx="20.13"
         ry="20.13"
         id="ellipse25" />
      <text fill="rgb(88%, 89%, 91%)"
         xml:space="preserve"
         text-anchor="middle"
         x="426"
         y="-243.87"
         font-family="Times,serif"
         font-size="14.00"
         id="text25">14</text>
    </g>
    <!-- 5&#45;&gt;14 -->
    <g
       id="edge15"
       class="edge">
      <title
         id="title26">5-&gt;14</title>
      <path
         fill="none"
         stroke="blue"
         d="M420.24,-305.68C419.39,-298.08 419.09,-288.79 419.33,-280"
         id="path26" />
      <polygon
         fill="blue"
         stroke="blue"
         points="422.83,-280.21 419.92,-270.02 415.84,-279.8 422.83,-280.21"
         id="polygon26" />
    </g>
    <!-- 6&#45;&gt;1 -->
    <g
       id="edge18"
       class="edge">
      <title
         id="title27">6-&gt;1</title>
      <path
         fill="none"
         stroke="blue"
         d="M247.71,-190.09C248.71,-198.93 248.99,-210.06 248.55,-220.2"
         id="path27" />
      <polygon
         fill="blue"
         stroke="blue"
         points="245.08,-219.7 247.83,-229.93 252.06,-220.21 245.08,-219.7"
         id="polygon27" />
    </g>
    <!-- 9 -->
    <g
       id="node9"
       class="node">
      <title
         id="title28">9</title>
      <ellipse
         fill="none"
         stroke="rgb(88%, 89%, 91%)"
         cx="240"
         cy="-96.39"
         rx="18"
         ry="18"
         id="ellipse28" />
      <text fill="rgb(88%, 89%, 91%)"
         xml:space="preserve"
         text-anchor="middle"
         x="240"
         y="-91.34"
         font-family="Times,serif"
         font-size="14.00"
         id="text28">9</text>
    </g>
    <!-- 6&#45;&gt;9 -->
    <g
       id="edge16"
       class="edge">
      <title
         id="title29">6-&gt;9</title>
      <path
         fill="none"
         stroke="red"
         d="M241.54,-154.43C241.31,-146.06 241.03,-135.76 240.78,-126.24"
         id="path29" />
      <polygon
         fill="red"
         stroke="red"
         points="244.28,-126.2 240.51,-116.29 237.28,-126.38 244.28,-126.2"
         id="polygon29" />
    </g>
    <!-- 11 -->
    <g
       id="node11"
       class="node">
      <title
         id="title30">11</title>
      <ellipse
         fill="none"
         stroke="rgb(88%, 89%, 91%)"
         cx="332"
         cy="-96.39"
         rx="20.13"
         ry="20.13"
         id="ellipse30" />
      <text fill="rgb(88%, 89%, 91%)"
         xml:space="preserve"
         text-anchor="middle"
         x="332"
         y="-91.34"
         font-family="Times,serif"
         font-size="14.00"
         id="text30">11</text>
    </g>
    <!-- 6&#45;&gt;11 -->
    <g
       id="edge17"
       class="edge">
      <title
         id="title31">6-&gt;11</title>
      <path
         fill="none"
         stroke="green"
         d="M255.67,-160.38C269.53,-148.94 291.25,-131.01 307.99,-117.2"
         id="path31" />
      <polygon
         fill="green"
         stroke="green"
         points="310.04,-120.05 315.53,-110.99 305.58,-114.65 310.04,-120.05"
         id="polygon31" />
    </g>
    <!-- 7&#45;&gt;2 -->
    <g
       id="edge21"
       class="edge">
      <title
         id="title32">7-&gt;2</title>
      <path
         fill="none"
         stroke="blue"
         d="M337.71,-190.09C338.71,-198.93 338.99,-210.06 338.55,-220.2"
         id="path32" />
      <polygon
         fill="blue"
         stroke="blue"
         points="335.08,-219.7 337.83,-229.93 342.06,-220.21 335.08,-219.7"
         id="polygon32" />
    </g>
    <!-- 10 -->
    <g
       id="node10"
       class="node">
      <title
         id="title33">10</title>
      <ellipse
         fill="none"
         stroke="rgb(88%, 89%, 91%)"
         cx="148"
         cy="-96.39"
         rx="20.13"
         ry="20.13"
         id="ellipse33" />
      <text fill="rgb(88%, 89%, 91%)"
         xml:space="preserve"
         text-anchor="middle"
         x="148"
         y="-91.34"
         font-family="Times,serif"
         font-size="14.00"
         id="text33">10</text>
    </g>
    <!-- 7&#45;&gt;10 -->
    <g
       id="edge19"
       class="edge">
      <title
         id="title34">7-&gt;10</title>
      <path
         fill="none"
         stroke="red"
         d="M315.35,-164.93C284.11,-152.33 216.35,-124.98 177.31,-109.22"
         id="path34" />
      <polygon
         fill="red"
         stroke="red"
         points="178.64,-105.99 168.06,-105.49 176.02,-112.48 178.64,-105.99"
         id="polygon34" />
    </g>
    <!-- 12 -->
    <g
       id="node12"
       class="node">
      <title
         id="title35">12</title>
      <ellipse
         fill="none"
         stroke="rgb(88%, 89%, 91%)"
         cx="426"
         cy="-96.39"
         rx="20.13"
         ry="20.13"
         id="ellipse35" />
      <text fill="rgb(88%, 89%, 91%)"
         xml:space="preserve"
         text-anchor="middle"
         x="426"
         y="-91.34"
         font-family="Times,serif"
         font-size="14.00"
         id="text35">12</text>
    </g>
    <!-- 7&#45;&gt;12 -->
    <g
       id="edge20"
       class="edge">
      <title
         id="title36">7-&gt;12</title>
      <path
         fill="none"
         stroke="green"
         d="M345.87,-160.7C360.57,-149.09 384.07,-130.52 401.82,-116.49"
         id="path36" />
      <polygon
         fill="green"
         stroke="green"
         points="403.64,-119.52 409.32,-110.57 399.3,-114.02 403.64,-119.52"
         id="polygon36" />
    </g>
    <!-- 8&#45;&gt;1 -->
    <g
       id="edge22"
       class="edge">
      <title
         id="title37">8-&gt;1</title>
      <path
         fill="none"
         stroke="red"
         d="M277.68,-307.1C271.82,-297.72 264.13,-285.4 257.39,-274.59"
         id="path37" />
      <polygon
         fill="red"
         stroke="red"
         points="260.38,-272.76 252.11,-266.13 254.44,-276.47 260.38,-272.76"
         id="polygon37" />
    </g>
    <!-- 8&#45;&gt;2 -->
    <g
       id="edge23"
       class="edge">
      <title
         id="title38">8-&gt;2</title>
      <path
         fill="none"
         stroke="green"
         d="M296.32,-307.1C302.18,-297.72 309.87,-285.4 316.61,-274.59"
         id="path38" />
      <polygon
         fill="green"
         stroke="green"
         points="319.56,-276.47 321.89,-266.13 313.62,-272.76 319.56,-276.47"
         id="polygon38" />
    </g>
    <!-- 8&#45;&gt;3 -->
    <g
       id="edge24"
       class="edge">
      <title
         id="title39">8-&gt;3</title>
      <path
         fill="none"
         stroke="blue"
         d="M292.79,-340.2C293.67,-347.96 293.94,-357.48 293.62,-366.35"
         id="path39" />
      <polygon
         fill="blue"
         stroke="blue"
         points="290.13,-366.08 292.91,-376.3 297.11,-366.58 290.13,-366.08"
         id="polygon39" />
    </g>
    <!-- 9&#45;&gt;9 -->
    <g
       id="edge25"
       class="edge">
      <title
         id="title40">9-&gt;9</title>
      <path
         fill="none"
         stroke="red"
         d="M257.04,-103.15C266.86,-104.53 276,-102.28 276,-96.39 276,-92.99 272.94,-90.8 268.47,-89.83"
         id="path40" />
      <polygon
         fill="red"
         stroke="red"
         points="268.61,-86.33 258.55,-89.66 268.49,-93.33 268.61,-86.33"
         id="polygon40" />
    </g>
    <!-- 9&#45;&gt;9 -->
    <g
       id="edge26"
       class="edge">
      <title
         id="title41">9-&gt;9</title>
      <path
         fill="none"
         stroke="green"
         d="M255.2,-106.77C273.11,-114.38 294,-110.92 294,-96.39 294,-84.71 280.47,-80.18 265.86,-82.82"
         id="path41" />
      <polygon
         fill="green"
         stroke="green"
         points="265.23,-79.36 256.65,-85.58 267.24,-86.07 265.23,-79.36"
         id="polygon41" />
    </g>
    <!-- 15 -->
    <g
       id="node15"
       class="node">
      <title
         id="title42">15</title>
      <ellipse
         fill="none"
         stroke="rgb(88%, 89%, 91%)"
         cx="239"
         cy="-20.13"
         rx="20.13"
         ry="20.13"
         id="ellipse42" />
      <text fill="rgb(88%, 89%, 91%)"
         xml:space="preserve"
         text-anchor="middle"
         x="239"
         y="-15.08"
         font-family="Times,serif"
         font-size="14.00"
         id="text42">15</text>
    </g>
    <!-- 9&#45;&gt;15 -->
    <g
       id="edge27"
       class="edge">
      <title
         id="title43">9-&gt;15</title>
      <path
         fill="none"
         stroke="blue"
         d="M234.06,-78.91C233.04,-70.8 232.6,-60.76 232.76,-51.34"
         id="path43" />
      <polygon
         fill="blue"
         stroke="blue"
         points="236.25,-51.59 233.23,-41.43 229.26,-51.26 236.25,-51.59"
         id="polygon43" />
    </g>
    <!-- 10&#45;&gt;10 -->
    <g
       id="edge28"
       class="edge">
      <title
         id="title44">10-&gt;10</title>
      <path
         fill="none"
         stroke="red"
         d="M167.23,-103.29C177.17,-104.35 186.13,-102.05 186.13,-96.39 186.13,-93.12 183.14,-90.97 178.69,-89.95"
         id="path44" />
      <polygon
         fill="red"
         stroke="red"
         points="178.87,-86.45 168.74,-89.55 178.59,-93.45 178.87,-86.45"
         id="polygon44" />
    </g>
    <!-- 10&#45;&gt;10 -->
    <g
       id="edge29"
       class="edge">
      <title
         id="title45">10-&gt;10</title>
      <path
         fill="none"
         stroke="green"
         d="M165.24,-107.34C183.52,-114.19 204.13,-110.54 204.13,-96.39 204.13,-85.01 190.78,-80.42 176.05,-82.63"
         id="path45" />
      <polygon
         fill="green"
         stroke="green"
         points="175.5,-79.16 166.71,-85.07 177.26,-85.93 175.5,-79.16"
         id="polygon45" />
    </g>
    <!-- 17 -->
    <g
       id="node17"
       class="node">
      <title
         id="title46">17</title>
      <ellipse
         fill="none"
         stroke="rgb(88%, 89%, 91%)"
         cx="148"
         cy="-172.66"
         rx="20.13"
         ry="20.13"
         id="ellipse46" />
      <text fill="rgb(88%, 89%, 91%)"
         xml:space="preserve"
         text-anchor="middle"
         x="148"
         y="-167.61"
         font-family="Times,serif"
         font-size="14.00"
         id="text46">17</text>
    </g>
    <!-- 10&#45;&gt;17 -->
    <g
       id="edge30"
       class="edge">
      <title
         id="title47">10-&gt;17</title>
      <path
         fill="none"
         stroke="blue"
         d="M153.95,-116.13C154.68,-123.87 154.91,-133.03 154.64,-141.66"
         id="path47" />
      <polygon
         fill="blue"
         stroke="blue"
         points="151.16,-141.21 154.04,-151.41 158.15,-141.64 151.16,-141.21"
         id="polygon47" />
    </g>
    <!-- 11&#45;&gt;11 -->
    <g
       id="edge31"
       class="edge">
      <title
         id="title48">11-&gt;11</title>
      <path
         fill="none"
         stroke="red"
         d="M351.23,-103.29C361.17,-104.35 370.13,-102.05 370.13,-96.39 370.13,-93.12 367.14,-90.97 362.69,-89.95"
         id="path48" />
      <polygon
         fill="red"
         stroke="red"
         points="362.87,-86.45 352.74,-89.55 362.59,-93.45 362.87,-86.45"
         id="polygon48" />
    </g>
    <!-- 11&#45;&gt;11 -->
    <g
       id="edge32"
       class="edge">
      <title
         id="title49">11-&gt;11</title>
      <path
         fill="none"
         stroke="green"
         d="M349.24,-107.34C367.52,-114.19 388.13,-110.54 388.13,-96.39 388.13,-85.01 374.78,-80.42 360.05,-82.63"
         id="path49" />
      <polygon
         fill="green"
         stroke="green"
         points="359.5,-79.16 350.71,-85.07 361.26,-85.93 359.5,-79.16"
         id="polygon49" />
    </g>
    <!-- 16 -->
    <g
       id="node16"
       class="node">
      <title
         id="title50">16</title>
      <ellipse
         fill="none"
         stroke="rgb(88%, 89%, 91%)"
         cx="333"
         cy="-20.13"
         rx="20.13"
         ry="20.13"
         id="ellipse50" />
      <text fill="rgb(88%, 89%, 91%)"
         xml:space="preserve"
         text-anchor="middle"
         x="333"
         y="-15.08"
         font-family="Times,serif"
         font-size="14.00"
         id="text50">16</text>
    </g>
    <!-- 11&#45;&gt;16 -->
    <g
       id="edge33"
       class="edge">
      <title
         id="title51">11-&gt;16</title>
      <path
         fill="none"
         stroke="blue"
         d="M326.3,-76.65C325.67,-68.86 325.57,-59.61 325.97,-50.92"
         id="path51" />
      <polygon
         fill="blue"
         stroke="blue"
         points="329.44,-51.35 326.71,-41.12 322.46,-50.82 329.44,-51.35"
         id="polygon51" />
    </g>
    <!-- 12&#45;&gt;12 -->
    <g
       id="edge34"
       class="edge">
      <title
         id="title52">12-&gt;12</title>
      <path
         fill="none"
         stroke="red"
         d="M445.23,-103.29C455.17,-104.35 464.13,-102.05 464.13,-96.39 464.13,-93.12 461.14,-90.97 456.69,-89.95"
         id="path52" />
      <polygon
         fill="red"
         stroke="red"
         points="456.87,-86.45 446.74,-89.55 456.59,-93.45 456.87,-86.45"
         id="polygon52" />
    </g>
    <!-- 12&#45;&gt;12 -->
    <g
       id="edge35"
       class="edge">
      <title
         id="title53">12-&gt;12</title>
      <path
         fill="none"
         stroke="green"
         d="M443.24,-107.34C461.52,-114.19 482.13,-110.54 482.13,-96.39 482.13,-85.01 468.78,-80.42 454.05,-82.63"
         id="path53" />
      <polygon
         fill="green"
         stroke="green"
         points="453.5,-79.16 444.71,-85.07 455.26,-85.93 453.5,-79.16"
         id="polygon53" />
    </g>
    <!-- 18 -->
    <g
       id="node18"
       class="node">
      <title
         id="title54">18</title>
      <ellipse
         fill="none"
         stroke="rgb(88%, 89%, 91%)"
         cx="426"
         cy="-172.66"
         rx="20.13"
         ry="20.13"
         id="ellipse54" />
      <text fill="rgb(88%, 89%, 91%)"
         xml:space="preserve"
         text-anchor="middle"
         x="426"
         y="-167.61"
         font-family="Times,serif"
         font-size="14.00"
         id="text54">18</text>
    </g>
    <!-- 12&#45;&gt;18 -->
    <g
       id="edge36"
       class="edge">
      <title
         id="title55">12-&gt;18</title>
      <path
         fill="none"
         stroke="blue"
         d="M431.95,-116.13C432.68,-123.87 432.91,-133.03 432.64,-141.66"
         id="path55" />
      <polygon
         fill="blue"
         stroke="blue"
         points="429.16,-141.21 432.04,-151.41 436.15,-141.64 429.16,-141.21"
         id="polygon55" />
    </g>
    <!-- 13&#45;&gt;4 -->
    <g
       id="edge39"
       class="edge">
      <title
         id="title56">13-&gt;4</title>
      <path
         fill="none"
         stroke="blue"
         d="M67.44,-235.99C56.88,-225.76 43.28,-210.7 32.88,-197.95"
         id="path56" />
      <polygon
         fill="blue"
         stroke="blue"
         points="35.85,-196.05 26.91,-190.36 30.35,-200.38 35.85,-196.05"
         id="polygon56" />
    </g>
    <!-- 13&#45;&gt;15 -->
    <g
       id="edge37"
       class="edge">
      <title
         id="title57">13-&gt;15</title>
      <path
         fill="none"
         stroke="red"
         d="M81.75,-228.59C80.56,-194.14 82.92,-121.49 119,-76.26 141.15,-48.51 180.42,-34.16 207.99,-27.15"
         id="path57" />
      <polygon
         fill="red"
         stroke="red"
         points="208.58,-30.6 217.53,-24.92 206.99,-23.79 208.58,-30.6"
         id="polygon57" />
    </g>
    <!-- 13&#45;&gt;17 -->
    <g
       id="edge38"
       class="edge">
      <title
         id="title58">13-&gt;17</title>
      <path
         fill="none"
         stroke="green"
         d="M95.84,-233.25C104.86,-222.94 117.12,-208.93 127.49,-197.09"
         id="path58" />
      <polygon
         fill="green"
         stroke="green"
         points="130.01,-199.52 133.97,-189.69 124.75,-194.91 130.01,-199.52"
         id="polygon58" />
    </g>
    <!-- 14&#45;&gt;5 -->
    <g
       id="edge42"
       class="edge">
      <title
         id="title59">14-&gt;5</title>
      <path
         fill="none"
         stroke="blue"
         d="M431.99,-268.51C432.74,-276.41 432.93,-285.79 432.58,-294.48"
         id="path59" />
      <polygon
         fill="blue"
         stroke="blue"
         points="429.11,-293.94 431.87,-304.17 436.09,-294.45 429.11,-293.94"
         id="polygon59" />
    </g>
    <!-- 14&#45;&gt;16 -->
    <g
       id="edge40"
       class="edge">
      <title
         id="title60">14-&gt;16</title>
      <path
         fill="none"
         stroke="red"
         d="M443.87,-238.66C459.57,-229.42 481.36,-213.6 491,-192.79 512.76,-145.79 520.99,-118.49 491,-76.26 462.39,-35.97 402.05,-24.88 364.77,-21.98"
         id="path60" />
      <polygon
         fill="red"
         stroke="red"
         points="365.25,-18.5 355.06,-21.39 364.83,-25.49 365.25,-18.5"
         id="polygon60" />
    </g>
    <!-- 14&#45;&gt;18 -->
    <g
       id="edge41"
       class="edge">
      <title
         id="title61">14-&gt;18</title>
      <path
         fill="none"
         stroke="green"
         d="M426,-228.41C426,-221.07 426,-212.54 426,-204.43"
         id="path61" />
      <polygon
         fill="green"
         stroke="green"
         points="429.5,-204.55 426,-194.55 422.5,-204.55 429.5,-204.55"
         id="polygon61" />
    </g>
    <!-- 15&#45;&gt;9 -->
    <g
       id="edge45"
       class="edge">
      <title
         id="title62">15-&gt;9</title>
      <path
         fill="none"
         stroke="blue"
         d="M245.18,-39.66C246.11,-48.13 246.45,-58.35 246.18,-67.71"
         id="path62" />
      <polygon
         fill="blue"
         stroke="blue"
         points="242.7,-67.21 245.59,-77.4 249.69,-67.63 242.7,-67.21"
         id="polygon62" />
    </g>
    <!-- 15&#45;&gt;15 -->
    <g
       id="edge43"
       class="edge">
      <title
         id="title63">15-&gt;15</title>
      <path
         fill="none"
         stroke="red"
         d="M258.23,-27.03C268.17,-28.09 277.13,-25.79 277.13,-20.13 277.13,-16.86 274.14,-14.71 269.69,-13.68"
         id="path63" />
      <polygon
         fill="red"
         stroke="red"
         points="269.87,-10.19 259.74,-13.29 269.59,-17.18 269.87,-10.19"
         id="polygon63" />
    </g>
    <!-- 15&#45;&gt;15 -->
    <g
       id="edge44"
       class="edge">
      <title
         id="title64">15-&gt;15</title>
      <path
         fill="none"
         stroke="green"
         d="M256.24,-31.08C274.52,-37.93 295.13,-34.28 295.13,-20.13 295.13,-8.74 281.78,-4.16 267.05,-6.37"
         id="path64" />
      <polygon
         fill="green"
         stroke="green"
         points="266.5,-2.9 257.71,-8.81 268.26,-9.67 266.5,-2.9"
         id="polygon64" />
    </g>
    <!-- 16&#45;&gt;11 -->
    <g
       id="edge48"
       class="edge">
      <title
         id="title65">16-&gt;11</title>
      <path
         fill="none"
         stroke="blue"
         d="M338.69,-39.79C339.33,-47.63 339.44,-56.93 339.03,-65.67"
         id="path65" />
      <polygon
         fill="blue"
         stroke="blue"
         points="335.55,-65.29 338.28,-75.53 342.53,-65.82 335.55,-65.29"
         id="polygon65" />
    </g>
    <!-- 16&#45;&gt;16 -->
    <g
       id="edge46"
       class="edge">
      <title
         id="title66">16-&gt;16</title>
      <path
         fill="none"
         stroke="red"
         d="M352.23,-27.03C362.17,-28.09 371.13,-25.79 371.13,-20.13 371.13,-16.86 368.14,-14.71 363.69,-13.68"
         id="path66" />
      <polygon
         fill="red"
         stroke="red"
         points="363.87,-10.19 353.74,-13.29 363.59,-17.18 363.87,-10.19"
         id="polygon66" />
    </g>
    <!-- 16&#45;&gt;16 -->
    <g
       id="edge47"
       class="edge">
      <title
         id="title67">16-&gt;16</title>
      <path
         fill="none"
         stroke="green"
         d="M350.24,-31.08C368.52,-37.93 389.13,-34.28 389.13,-20.13 389.13,-8.74 375.78,-4.16 361.05,-6.37"
         id="path67" />
      <polygon
         fill="green"
         stroke="green"
         points="360.5,-2.9 351.71,-8.81 362.26,-9.67 360.5,-2.9"
         id="polygon67" />
    </g>
    <!-- 17&#45;&gt;10 -->
    <g
       id="edge51"
       class="edge">
      <title
         id="title68">17-&gt;10</title>
      <path
         fill="none"
         stroke="blue"
         d="M142.05,-152.92C141.32,-145.18 141.09,-136.01 141.36,-127.38"
         id="path68" />
      <polygon
         fill="blue"
         stroke="blue"
         points="144.84,-127.83 141.96,-117.64 137.85,-127.41 144.84,-127.83"
         id="polygon68" />
    </g>
    <!-- 17&#45;&gt;17 -->
    <g
       id="edge49"
       class="edge">
      <title
         id="title69">17-&gt;17</title>
      <path
         fill="none"
         stroke="red"
         d="M167.23,-179.55C177.17,-180.62 186.13,-178.32 186.13,-172.66 186.13,-169.38 183.14,-167.23 178.69,-166.21"
         id="path69" />
      <polygon
         fill="red"
         stroke="red"
         points="178.87,-162.71 168.74,-165.82 178.59,-169.71 178.87,-162.71"
         id="polygon69" />
    </g>
    <!-- 17&#45;&gt;17 -->
    <g
       id="edge50"
       class="edge">
      <title
         id="title70">17-&gt;17</title>
      <path
         fill="none"
         stroke="green"
         d="M165.24,-183.6C183.52,-190.45 204.13,-186.81 204.13,-172.66 204.13,-161.27 190.78,-156.68 176.05,-158.9"
         id="path70" />
      <polygon
         fill="green"
         stroke="green"
         points="175.5,-155.42 166.71,-161.33 177.26,-162.2 175.5,-155.42"
         id="polygon70" />
    </g>
    <!-- 18&#45;&gt;12 -->
    <g
       id="edge54"
       class="edge">
      <title
         id="title71">18-&gt;12</title>
      <path
         fill="none"
         stroke="blue"
         d="M420.05,-152.92C419.32,-145.18 419.09,-136.01 419.36,-127.38"
         id="path71" />
      <polygon
         fill="blue"
         stroke="blue"
         points="422.84,-127.83 419.96,-117.64 415.85,-127.41 422.84,-127.83"
         id="polygon71" />
    </g>
    <!-- 18&#45;&gt;18 -->
    <g
       id="edge52"
       class="edge">
      <title
         id="title72">18-&gt;18</title>
      <path
         fill="none"
         stroke="red"
         d="M445.23,-179.55C455.17,-180.62 464.13,-178.32 464.13,-172.66 464.13,-169.38 461.14,-167.23 456.69,-166.21"
         id="path72" />
      <polygon
         fill="red"
         stroke="red"
         points="456.87,-162.71 446.74,-165.82 456.59,-169.71 456.87,-162.71"
         id="polygon72" />
    </g>
    <!-- 18&#45;&gt;18 -->
    <g
       id="edge53"
       class="edge">
      <title
         id="title73">18-&gt;18</title>
      <path
         fill="none"
         stroke="green"
         d="M443.24,-183.6C461.52,-190.45 482.13,-186.81 482.13,-172.66 482.13,-161.27 468.78,-156.68 454.05,-158.9"
         id="path73" />
      <polygon
         fill="green"
         stroke="green"
         points="453.5,-155.42 444.71,-161.33 455.26,-162.2 453.5,-155.42"
         id="polygon73" />
    </g>
  </g>
</svg>
