<?xml version="1.0" encoding="UTF-8" standalone="no"?>
<!-- Generated by graphviz version 14.1.5 (20260411.2331)
 -->

<!-- Title: hgn Pages: 1 -->

<svg
   width="543pt"
   height="491pt"
   viewBox="0.00 0.00 543.00 491.00"
   version="1.1"
   id="svg73"
   sodipodi:docname="gap-left-cayley-graph-nocolor-dark.svg"
   inkscape:version="1.4.4 (dcaf3e7, 2026-05-05)"
   xmlns:inkscape="http://www.inkscape.org/namespaces/inkscape"
   xmlns:sodipodi="http://sodipodi.sourceforge.net/DTD/sodipodi-0.dtd"
   xmlns="http://www.w3.org/2000/svg"
   xmlns:svg="http://www.w3.org/2000/svg">
  <defs
     id="defs73" />
  <sodipodi:namedview
     id="namedview73"
     pagecolor="#ffffff"
     bordercolor="#000000"
     borderopacity="0.25"
     inkscape:showpageshadow="2"
     inkscape:pageopacity="0.0"
     inkscape:pagecheckerboard="0"
     inkscape:deskcolor="#d1d1d1"
     inkscape:document-units="pt"
     inkscape:zoom="0.039714868"
     inkscape:cx="365.10256"
     inkscape:cy="327.33333"
     inkscape:window-width="1280"
     inkscape:window-height="803"
     inkscape:window-x="0"
     inkscape:window-y="29"
     inkscape:window-maximized="0"
     inkscape:current-layer="svg73" />
  <g
     id="graph0"
     class="graph"
     transform="scale(1 1) rotate(0) translate(4 486.82)">
    <title
       id="title1">hgn</title>
    <polygon
       fill="none"
       stroke="none"
       points="-4,4 -4,-486.82 539.48,-486.82 539.48,4 -4,4"
       id="polygon1" />
    <!-- 1 -->
    <g
       id="node1"
       class="node">
      <title
         id="title2">1</title>
      <ellipse
         fill="none"
         stroke="black"
         cx="268.11"
         cy="-292.42"
         rx="18"
         ry="18"
         id="ellipse2" />
      <text
         xml:space="preserve"
         text-anchor="middle"
         x="268.11"
         y="-287.37"
         font-family="Times,serif"
         font-size="14.00"
         id="text2">a</text>
    </g>
    <!-- 1&#45;&gt;1 -->
    <g
       id="edge1"
       class="edge">
      <title
         id="title3">1-&gt;1</title>
      <path
         fill="none"
         stroke="black"
         d="M284.77,-300.16C294.73,-301.88 304.11,-299.3 304.11,-292.42 304.11,-288.34 300.8,-285.77 296.03,-284.72"
         id="path3" />
      <polygon
         fill="black"
         stroke="black"
         points="296.3,-281.22 286.29,-284.69 296.27,-288.22 296.3,-281.22"
         id="polygon3" />
    </g>
    <!-- 1&#45;&gt;1 -->
    <g
       id="edge2"
       class="edge">
      <title
         id="title4">1-&gt;1</title>
      <path
         fill="none"
         stroke="black"
         d="M282.49,-303.99C300.57,-313.3 322.11,-309.44 322.11,-292.42 322.11,-278.72 308.16,-273.55 293.29,-276.9"
         id="path4" />
      <polygon
         fill="black"
         stroke="black"
         points="292.1,-273.61 283.91,-280.33 294.5,-280.19 292.1,-273.61"
         id="polygon4" />
    </g>
    <!-- 6 -->
    <g
       id="node6"
       class="node">
      <title
         id="title5">6</title>
      <ellipse
         fill="none"
         stroke="black"
         cx="268.11"
         cy="-204.39"
         rx="19.11"
         ry="19.11"
         id="ellipse5" />
      <text
         xml:space="preserve"
         text-anchor="middle"
         x="268.11"
         y="-199.34"
         font-family="Times,serif"
         font-size="14.00"
         id="text5">ca</text>
    </g>
    <!-- 1&#45;&gt;6 -->
    <g
       id="edge3"
       class="edge">
      <title
         id="title6">1-&gt;6</title>
      <path
         fill="none"
         stroke="black"
         d="M262.65,-274.83C261.35,-263.35 261.03,-247.77 261.69,-234.28"
         id="path6" />
      <polygon
         fill="black"
         stroke="black"
         points="265.16,-234.85 262.41,-224.62 258.18,-234.33 265.16,-234.85"
         id="polygon6" />
    </g>
    <!-- 2 -->
    <g
       id="node2"
       class="node">
      <title
         id="title7">2</title>
      <ellipse
         fill="none"
         stroke="black"
         cx="358.11"
         cy="-292.42"
         rx="18"
         ry="18"
         id="ellipse7" />
      <text
         xml:space="preserve"
         text-anchor="middle"
         x="358.11"
         y="-287.37"
         font-family="Times,serif"
         font-size="14.00"
         id="text7">b</text>
    </g>
    <!-- 2&#45;&gt;2 -->
    <g
       id="edge4"
       class="edge">
      <title
         id="title8">2-&gt;2</title>
      <path
         fill="none"
         stroke="black"
         d="M374.77,-300.16C384.73,-301.88 394.11,-299.3 394.11,-292.42 394.11,-288.34 390.8,-285.77 386.03,-284.72"
         id="path8" />
      <polygon
         fill="black"
         stroke="black"
         points="386.3,-281.22 376.29,-284.69 386.27,-288.22 386.3,-281.22"
         id="polygon8" />
    </g>
    <!-- 2&#45;&gt;2 -->
    <g
       id="edge5"
       class="edge">
      <title
         id="title9">2-&gt;2</title>
      <path
         fill="none"
         stroke="black"
         d="M372.49,-303.99C390.57,-313.3 412.11,-309.44 412.11,-292.42 412.11,-278.72 398.16,-273.55 383.29,-276.9"
         id="path9" />
      <polygon
         fill="black"
         stroke="black"
         points="382.1,-273.61 373.91,-280.33 384.5,-280.19 382.1,-273.61"
         id="polygon9" />
    </g>
    <!-- 7 -->
    <g
       id="node7"
       class="node">
      <title
         id="title10">7</title>
      <ellipse
         fill="none"
         stroke="black"
         cx="358.11"
         cy="-204.39"
         rx="19.62"
         ry="19.62"
         id="ellipse10" />
      <text
         xml:space="preserve"
         text-anchor="middle"
         x="358.11"
         y="-199.34"
         font-family="Times,serif"
         font-size="14.00"
         id="text10">cb</text>
    </g>
    <!-- 2&#45;&gt;7 -->
    <g
       id="edge6"
       class="edge">
      <title
         id="title11">2-&gt;7</title>
      <path
         fill="none"
         stroke="black"
         d="M352.65,-274.83C351.36,-263.43 351.03,-247.98 351.68,-234.54"
         id="path11" />
      <polygon
         fill="black"
         stroke="black"
         points="355.14,-235.15 352.38,-224.92 348.16,-234.64 355.14,-235.15"
         id="polygon11" />
    </g>
    <!-- 3 -->
    <g
       id="node3"
       class="node">
      <title
         id="title12">3</title>
      <ellipse
         fill="none"
         stroke="black"
         cx="313.11"
         cy="-464.82"
         rx="18"
         ry="18"
         id="ellipse12" />
      <text
         xml:space="preserve"
         text-anchor="middle"
         x="313.11"
         y="-459.77"
         font-family="Times,serif"
         font-size="14.00"
         id="text12">c</text>
    </g>
    <!-- 4 -->
    <g
       id="node4"
       class="node">
      <title
         id="title13">4</title>
      <ellipse
         fill="none"
         stroke="black"
         cx="19.11"
         cy="-204.39"
         rx="19.11"
         ry="19.11"
         id="ellipse13" />
      <text
         xml:space="preserve"
         text-anchor="middle"
         x="19.11"
         y="-199.34"
         font-family="Times,serif"
         font-size="14.00"
         id="text13">ac</text>
    </g>
    <!-- 3&#45;&gt;4 -->
    <g
       id="edge7"
       class="edge">
      <title
         id="title14">3-&gt;4</title>
      <path
         fill="none"
         stroke="black"
         d="M295.67,-458.82C249.22,-444.61 121.43,-399.5 54.11,-316.14 35.25,-292.78 26.49,-259.15 22.46,-235.08"
         id="path14" />
      <polygon
         fill="black"
         stroke="black"
         points="25.94,-234.67 21.02,-225.29 19.01,-235.7 25.94,-234.67"
         id="polygon14" />
    </g>
    <!-- 5 -->
    <g
       id="node5"
       class="node">
      <title
         id="title15">5</title>
      <ellipse
         fill="none"
         stroke="black"
         cx="458.11"
         cy="-381.48"
         rx="19.62"
         ry="19.62"
         id="ellipse15" />
      <text
         xml:space="preserve"
         text-anchor="middle"
         x="458.11"
         y="-376.43"
         font-family="Times,serif"
         font-size="14.00"
         id="text15">bc</text>
    </g>
    <!-- 3&#45;&gt;5 -->
    <g
       id="edge8"
       class="edge">
      <title
         id="title16">3-&gt;5</title>
      <path
         fill="none"
         stroke="black"
         d="M328.63,-455.12C353.2,-441.33 401.36,-414.31 431.52,-397.39"
         id="path16" />
      <polygon
         fill="black"
         stroke="black"
         points="433.04,-400.56 440.05,-392.61 429.61,-394.45 433.04,-400.56"
         id="polygon16" />
    </g>
    <!-- 8 -->
    <g
       id="node8"
       class="node">
      <title
         id="title17">8</title>
      <ellipse
         fill="none"
         stroke="black"
         cx="313.11"
         cy="-381.48"
         rx="29.34"
         ry="29.34"
         id="ellipse17" />
      <text
         xml:space="preserve"
         text-anchor="middle"
         x="313.11"
         y="-376.43"
         font-family="Times,serif"
         font-size="14.00"
         id="text17">c ^ 2</text>
    </g>
    <!-- 3&#45;&gt;8 -->
    <g
       id="edge9"
       class="edge">
      <title
         id="title18">3-&gt;8</title>
      <path
         fill="none"
         stroke="black"
         d="M307.56,-447.36C306.71,-439.92 306.31,-430.78 306.36,-421.73"
         id="path18" />
      <polygon
         fill="black"
         stroke="black"
         points="309.85,-422.05 306.62,-411.96 302.86,-421.87 309.85,-422.05"
         id="polygon18" />
    </g>
    <!-- 4&#45;&gt;4 -->
    <g
       id="edge10"
       class="edge">
      <title
         id="title19">4-&gt;4</title>
      <path
         fill="none"
         stroke="black"
         d="M37.05,-212.25C47.03,-213.71 56.22,-211.09 56.22,-204.39 56.22,-200.41 52.98,-197.87 48.26,-196.76"
         id="path19" />
      <polygon
         fill="black"
         stroke="black"
         points="48.64,-193.27 38.57,-196.56 48.49,-200.27 48.64,-193.27"
         id="polygon19" />
    </g>
    <!-- 4&#45;&gt;4 -->
    <g
       id="edge11"
       class="edge">
      <title
         id="title20">4-&gt;4</title>
      <path
         fill="none"
         stroke="black"
         d="M34.62,-216.37C52.9,-225.15 74.22,-221.15 74.22,-204.39 74.22,-190.9 60.41,-185.68 45.5,-188.72"
         id="path20" />
      <polygon
         fill="black"
         stroke="black"
         points="44.41,-185.4 36.06,-191.92 46.65,-192.03 44.41,-185.4"
         id="polygon20" />
    </g>
    <!-- 13 -->
    <g
       id="node13"
       class="node">
      <title
         id="title21">13</title>
      <ellipse
         fill="none"
         stroke="black"
         cx="86.11"
         cy="-292.42"
         rx="23.2"
         ry="23.2"
         id="ellipse21" />
      <text
         xml:space="preserve"
         text-anchor="middle"
         x="86.11"
         y="-287.37"
         font-family="Times,serif"
         font-size="14.00"
         id="text21">cac</text>
    </g>
    <!-- 4&#45;&gt;13 -->
    <g
       id="edge12"
       class="edge">
      <title
         id="title22">4-&gt;13</title>
      <path
         fill="none"
         stroke="black"
         d="M33.32,-217.41C44.04,-228.9 58.42,-246.68 69.59,-261.94"
         id="path22" />
      <polygon
         fill="black"
         stroke="black"
         points="66.54,-263.69 75.19,-269.8 72.24,-259.62 66.54,-263.69"
         id="polygon22" />
    </g>
    <!-- 5&#45;&gt;5 -->
    <g
       id="edge13"
       class="edge">
      <title
         id="title23">5-&gt;5</title>
      <path
         fill="none"
         stroke="black"
         d="M476.69,-388.97C486.65,-390.24 495.73,-387.75 495.73,-381.48 495.73,-377.76 492.53,-375.37 487.84,-374.3"
         id="path23" />
      <polygon
         fill="black"
         stroke="black"
         points="488.3,-370.81 478.2,-374.03 488.1,-377.81 488.3,-370.81"
         id="polygon23" />
    </g>
    <!-- 5&#45;&gt;5 -->
    <g
       id="edge14"
       class="edge">
      <title
         id="title24">5-&gt;5</title>
      <path
         fill="none"
         stroke="black"
         d="M474.33,-393.08C492.65,-401.05 513.73,-397.19 513.73,-381.48 513.73,-368.84 500.08,-363.87 485.21,-366.56"
         id="path24" />
      <polygon
         fill="black"
         stroke="black"
         points="484.32,-363.17 475.78,-369.44 486.37,-369.87 484.32,-363.17"
         id="polygon24" />
    </g>
    <!-- 14 -->
    <g
       id="node14"
       class="node">
      <title
         id="title25">14</title>
      <ellipse
         fill="none"
         stroke="black"
         cx="458.11"
         cy="-292.42"
         rx="23.71"
         ry="23.71"
         id="ellipse25" />
      <text
         xml:space="preserve"
         text-anchor="middle"
         x="458.11"
         y="-287.37"
         font-family="Times,serif"
         font-size="14.00"
         id="text25">cbc</text>
    </g>
    <!-- 5&#45;&gt;14 -->
    <g
       id="edge15"
       class="edge">
      <title
         id="title26">5-&gt;14</title>
      <path
         fill="none"
         stroke="black"
         d="M452.51,-362.44C451.45,-352.17 451.12,-338.99 451.52,-326.9"
         id="path26" />
      <polygon
         fill="black"
         stroke="black"
         points="454.99,-327.46 452.04,-317.28 448.01,-327.08 454.99,-327.46"
         id="polygon26" />
    </g>
    <!-- 6&#45;&gt;1 -->
    <g
       id="edge18"
       class="edge">
      <title
         id="title27">6-&gt;1</title>
      <path
         fill="none"
         stroke="black"
         d="M273.69,-223.11C274.91,-234.73 275.18,-250.18 274.48,-263.44"
         id="path27" />
      <polygon
         fill="black"
         stroke="black"
         points="270.99,-263.08 273.69,-273.32 277.97,-263.64 270.99,-263.08"
         id="polygon27" />
    </g>
    <!-- 9 -->
    <g
       id="node9"
       class="node">
      <title
         id="title28">9</title>
      <ellipse
         fill="none"
         stroke="black"
         cx="257.11"
         cy="-115.84"
         rx="23.2"
         ry="23.2"
         id="ellipse28" />
      <text
         xml:space="preserve"
         text-anchor="middle"
         x="257.11"
         y="-110.79"
         font-family="Times,serif"
         font-size="14.00"
         id="text28">aca</text>
    </g>
    <!-- 6&#45;&gt;9 -->
    <g
       id="edge16"
       class="edge">
      <title
         id="title29">6-&gt;9</title>
      <path
         fill="none"
         stroke="black"
         d="M265.77,-185.03C264.5,-174.99 262.87,-162.22 261.38,-150.46"
         id="path29" />
      <polygon
         fill="black"
         stroke="black"
         points="264.87,-150.15 260.14,-140.67 257.92,-151.03 264.87,-150.15"
         id="polygon29" />
    </g>
    <!-- 11 -->
    <g
       id="node11"
       class="node">
      <title
         id="title30">11</title>
      <ellipse
         fill="none"
         stroke="black"
         cx="358.11"
         cy="-115.84"
         rx="23.71"
         ry="23.71"
         id="ellipse30" />
      <text
         xml:space="preserve"
         text-anchor="middle"
         x="358.11"
         y="-110.79"
         font-family="Times,serif"
         font-size="14.00"
         id="text30">bca</text>
    </g>
    <!-- 6&#45;&gt;11 -->
    <g
       id="edge17"
       class="edge">
      <title
         id="title31">6-&gt;11</title>
      <path
         fill="none"
         stroke="black"
         d="M281.39,-190.62C294.96,-177.56 316.37,-156.98 333.13,-140.86"
         id="path31" />
      <polygon
         fill="black"
         stroke="black"
         points="335.53,-143.41 340.31,-133.96 330.67,-138.37 335.53,-143.41"
         id="polygon31" />
    </g>
    <!-- 7&#45;&gt;2 -->
    <g
       id="edge21"
       class="edge">
      <title
         id="title32">7-&gt;2</title>
      <path
         fill="none"
         stroke="black"
         d="M363.72,-223.41C364.92,-235.02 365.17,-250.35 364.47,-263.52"
         id="path32" />
      <polygon
         fill="black"
         stroke="black"
         points="361,-263.08 363.69,-273.32 367.97,-263.64 361,-263.08"
         id="polygon32" />
    </g>
    <!-- 10 -->
    <g
       id="node10"
       class="node">
      <title
         id="title33">10</title>
      <ellipse
         fill="none"
         stroke="black"
         cx="156.11"
         cy="-115.84"
         rx="23.71"
         ry="23.71"
         id="ellipse33" />
      <text
         xml:space="preserve"
         text-anchor="middle"
         x="156.11"
         y="-110.79"
         font-family="Times,serif"
         font-size="14.00"
         id="text33">acb</text>
    </g>
    <!-- 7&#45;&gt;10 -->
    <g
       id="edge19"
       class="edge">
      <title
         id="title34">7-&gt;10</title>
      <path
         fill="none"
         stroke="black"
         d="M340.23,-195.43C327.86,-189.94 311.01,-182.5 296.11,-176.07 259.32,-160.18 216.92,-142.3 188.5,-130.39"
         id="path34" />
      <polygon
         fill="black"
         stroke="black"
         points="189.95,-127.2 179.37,-126.56 187.24,-133.65 189.95,-127.2"
         id="polygon34" />
    </g>
    <!-- 12 -->
    <g
       id="node12"
       class="node">
      <title
         id="title35">12</title>
      <ellipse
         fill="none"
         stroke="black"
         cx="460.11"
         cy="-115.84"
         rx="24.23"
         ry="24.23"
         id="ellipse35" />
      <text
         xml:space="preserve"
         text-anchor="middle"
         x="460.11"
         y="-110.79"
         font-family="Times,serif"
         font-size="14.00"
         id="text35">bcb</text>
    </g>
    <!-- 7&#45;&gt;12 -->
    <g
       id="edge20"
       class="edge">
      <title
         id="title36">7-&gt;12</title>
      <path
         fill="none"
         stroke="black"
         d="M372.72,-190.99C388.51,-177.59 414.01,-155.96 433.39,-139.51"
         id="path36" />
      <polygon
         fill="black"
         stroke="black"
         points="435.57,-142.26 440.93,-133.12 431.04,-136.92 435.57,-142.26"
         id="polygon36" />
    </g>
    <!-- 8&#45;&gt;1 -->
    <g
       id="edge22"
       class="edge">
      <title
         id="title37">8-&gt;1</title>
      <path
         fill="none"
         stroke="black"
         d="M299.85,-354.83C294.03,-343.58 287.22,-330.4 281.4,-319.14"
         id="path37" />
      <polygon
         fill="black"
         stroke="black"
         points="284.59,-317.68 276.89,-310.41 278.37,-320.9 284.59,-317.68"
         id="polygon37" />
    </g>
    <!-- 8&#45;&gt;2 -->
    <g
       id="edge23"
       class="edge">
      <title
         id="title38">8-&gt;2</title>
      <path
         fill="none"
         stroke="black"
         d="M326.37,-354.83C332.18,-343.58 338.99,-330.4 344.81,-319.14"
         id="path38" />
      <polygon
         fill="black"
         stroke="black"
         points="347.85,-320.9 349.33,-310.41 341.63,-317.68 347.85,-320.9"
         id="polygon38" />
    </g>
    <!-- 8&#45;&gt;3 -->
    <g
       id="edge24"
       class="edge">
      <title
         id="title39">8-&gt;3</title>
      <path
         fill="none"
         stroke="black"
         d="M319.56,-410.45C319.96,-418.72 319.96,-427.76 319.55,-436.01"
         id="path39" />
      <polygon
         fill="black"
         stroke="black"
         points="316.07,-435.61 318.77,-445.85 323.05,-436.16 316.07,-435.61"
         id="polygon39" />
    </g>
    <!-- 9&#45;&gt;9 -->
    <g
       id="edge25"
       class="edge">
      <title
         id="title40">9-&gt;9</title>
      <path
         fill="none"
         stroke="black"
         d="M279.15,-123.93C289.38,-124.81 298.31,-122.12 298.31,-115.84 298.31,-112.12 295.16,-109.65 290.46,-108.45"
         id="path40" />
      <polygon
         fill="black"
         stroke="black"
         points="290.86,-104.97 280.66,-107.85 290.43,-111.95 290.86,-104.97"
         id="polygon40" />
    </g>
    <!-- 9&#45;&gt;9 -->
    <g
       id="edge26"
       class="edge">
      <title
         id="title41">9-&gt;9</title>
      <path
         fill="none"
         stroke="black"
         d="M276.51,-128.96C295.47,-136.2 316.31,-131.83 316.31,-115.84 316.31,-102.85 302.56,-97.53 287.23,-99.87"
         id="path41" />
      <polygon
         fill="black"
         stroke="black"
         points="286.74,-96.38 277.97,-102.34 288.54,-103.15 286.74,-96.38"
         id="polygon41" />
    </g>
    <!-- 15 -->
    <g
       id="node15"
       class="node">
      <title
         id="title42">15</title>
      <ellipse
         fill="none"
         stroke="black"
         cx="253.11"
         cy="-27.81"
         rx="27.3"
         ry="27.3"
         id="ellipse42" />
      <text
         xml:space="preserve"
         text-anchor="middle"
         x="253.11"
         y="-22.76"
         font-family="Times,serif"
         font-size="14.00"
         id="text42">acac</text>
    </g>
    <!-- 9&#45;&gt;15 -->
    <g
       id="edge27"
       class="edge">
      <title
         id="title43">9-&gt;15</title>
      <path
         fill="none"
         stroke="black"
         d="M250.2,-93.58C249.14,-85.39 248.43,-75.77 248.16,-66.5"
         id="path43" />
      <polygon
         fill="black"
         stroke="black"
         points="251.66,-66.54 248.07,-56.57 244.66,-66.6 251.66,-66.54"
         id="polygon43" />
    </g>
    <!-- 10&#45;&gt;10 -->
    <g
       id="edge28"
       class="edge">
      <title
         id="title44">10-&gt;10</title>
      <path
         fill="none"
         stroke="black"
         d="M178.85,-123.97C189.02,-124.74 197.82,-122.03 197.82,-115.84 197.82,-112.17 194.72,-109.72 190.07,-108.5"
         id="path44" />
      <polygon
         fill="black"
         stroke="black"
         points="190.58,-105.03 180.36,-107.82 190.09,-112.01 190.58,-105.03"
         id="polygon44" />
    </g>
    <!-- 10&#45;&gt;10 -->
    <g
       id="edge29"
       class="edge">
      <title
         id="title45">10-&gt;10</title>
      <path
         fill="none"
         stroke="black"
         d="M176.3,-129.19C195.26,-136.11 215.82,-131.66 215.82,-115.84 215.82,-103.11 202.5,-97.75 187.42,-99.74"
         id="path45" />
      <polygon
         fill="black"
         stroke="black"
         points="186.63,-96.33 177.77,-102.13 188.31,-103.13 186.63,-96.33"
         id="polygon45" />
    </g>
    <!-- 17 -->
    <g
       id="node17"
       class="node">
      <title
         id="title46">17</title>
      <ellipse
         fill="none"
         stroke="black"
         cx="158.11"
         cy="-204.39"
         rx="27.81"
         ry="27.81"
         id="ellipse46" />
      <text
         xml:space="preserve"
         text-anchor="middle"
         x="158.11"
         y="-199.34"
         font-family="Times,serif"
         font-size="14.00"
         id="text46">bcac</text>
    </g>
    <!-- 10&#45;&gt;17 -->
    <g
       id="edge30"
       class="edge">
      <title
         id="title47">10-&gt;17</title>
      <path
         fill="none"
         stroke="black"
         d="M162.6,-139.04C163.43,-147.17 163.89,-156.61 163.94,-165.72"
         id="path47" />
      <polygon
         fill="black"
         stroke="black"
         points="160.44,-165.39 163.79,-175.44 167.44,-165.49 160.44,-165.39"
         id="polygon47" />
    </g>
    <!-- 11&#45;&gt;11 -->
    <g
       id="edge31"
       class="edge">
      <title
         id="title48">11-&gt;11</title>
      <path
         fill="none"
         stroke="black"
         d="M380.85,-123.97C391.02,-124.74 399.82,-122.03 399.82,-115.84 399.82,-112.17 396.72,-109.72 392.07,-108.5"
         id="path48" />
      <polygon
         fill="black"
         stroke="black"
         points="392.58,-105.03 382.36,-107.82 392.09,-112.01 392.58,-105.03"
         id="polygon48" />
    </g>
    <!-- 11&#45;&gt;11 -->
    <g
       id="edge32"
       class="edge">
      <title
         id="title49">11-&gt;11</title>
      <path
         fill="none"
         stroke="black"
         d="M378.3,-129.19C397.26,-136.11 417.82,-131.66 417.82,-115.84 417.82,-103.11 404.5,-97.75 389.42,-99.74"
         id="path49" />
      <polygon
         fill="black"
         stroke="black"
         points="388.63,-96.33 379.77,-102.13 390.31,-103.13 388.63,-96.33"
         id="polygon49" />
    </g>
    <!-- 16 -->
    <g
       id="node16"
       class="node">
      <title
         id="title50">16</title>
      <ellipse
         fill="none"
         stroke="black"
         cx="362.11"
         cy="-27.81"
         rx="27.81"
         ry="27.81"
         id="ellipse50" />
      <text
         xml:space="preserve"
         text-anchor="middle"
         x="362.11"
         y="-22.76"
         font-family="Times,serif"
         font-size="14.00"
         id="text50">acbc</text>
    </g>
    <!-- 11&#45;&gt;16 -->
    <g
       id="edge33"
       class="edge">
      <title
         id="title51">11-&gt;16</title>
      <path
         fill="none"
         stroke="black"
         d="M353.14,-92.24C352.89,-84.28 353.09,-75.1 353.67,-66.24"
         id="path51" />
      <polygon
         fill="black"
         stroke="black"
         points="357.14,-66.69 354.5,-56.42 350.17,-66.09 357.14,-66.69"
         id="polygon51" />
    </g>
    <!-- 12&#45;&gt;12 -->
    <g
       id="edge34"
       class="edge">
      <title
         id="title52">12-&gt;12</title>
      <path
         fill="none"
         stroke="black"
         d="M483.13,-123.97C493.43,-124.74 502.33,-122.03 502.33,-115.84 502.33,-112.17 499.19,-109.72 494.49,-108.5"
         id="path52" />
      <polygon
         fill="black"
         stroke="black"
         points="494.85,-105.02 484.64,-107.82 494.37,-112 494.85,-105.02"
         id="polygon52" />
    </g>
    <!-- 12&#45;&gt;12 -->
    <g
       id="edge35"
       class="edge">
      <title
         id="title53">12-&gt;12</title>
      <path
         fill="none"
         stroke="black"
         d="M480.78,-129.3C499.82,-136.06 520.33,-131.57 520.33,-115.84 520.33,-103.18 507.05,-97.8 491.94,-99.71"
         id="path53" />
      <polygon
         fill="black"
         stroke="black"
         points="491.16,-96.3 482.25,-102.03 492.79,-103.1 491.16,-96.3"
         id="polygon53" />
    </g>
    <!-- 18 -->
    <g
       id="node18"
       class="node">
      <title
         id="title54">18</title>
      <ellipse
         fill="none"
         stroke="black"
         cx="458.11"
         cy="-204.39"
         rx="28.32"
         ry="28.32"
         id="ellipse54" />
      <text
         xml:space="preserve"
         text-anchor="middle"
         x="458.11"
         y="-199.34"
         font-family="Times,serif"
         font-size="14.00"
         id="text54">bcbc</text>
    </g>
    <!-- 12&#45;&gt;18 -->
    <g
       id="edge36"
       class="edge">
      <title
         id="title55">12-&gt;18</title>
      <path
         fill="none"
         stroke="black"
         d="M465.62,-139.94C466.02,-147.67 466.04,-156.51 465.7,-165.08"
         id="path55" />
      <polygon
         fill="black"
         stroke="black"
         points="462.21,-164.78 465.12,-174.97 469.2,-165.19 462.21,-164.78"
         id="polygon55" />
    </g>
    <!-- 13&#45;&gt;4 -->
    <g
       id="edge39"
       class="edge">
      <title
         id="title56">13-&gt;4</title>
      <path
         fill="none"
         stroke="black"
         d="M69.17,-276.44C57.95,-264.03 43.68,-246.13 33.11,-231.4"
         id="path56" />
      <polygon
         fill="black"
         stroke="black"
         points="36.2,-229.72 27.62,-223.51 30.45,-233.72 36.2,-229.72"
         id="polygon56" />
    </g>
    <!-- 13&#45;&gt;15 -->
    <g
       id="edge37"
       class="edge">
      <title
         id="title57">13-&gt;15</title>
      <path
         fill="none"
         stroke="black"
         d="M84.11,-269.05C81.76,-229.15 82.44,-144.9 123.11,-91.62 145.63,-62.11 185.59,-45.72 215.28,-37.15"
         id="path57" />
      <polygon
         fill="black"
         stroke="black"
         points="215.9,-40.61 224.64,-34.63 214.08,-33.85 215.9,-40.61"
         id="polygon57" />
    </g>
    <!-- 13&#45;&gt;17 -->
    <g
       id="edge38"
       class="edge">
      <title
         id="title58">13-&gt;17</title>
      <path
         fill="none"
         stroke="black"
         d="M100.68,-274.01C110.03,-262.84 122.41,-248.05 133.28,-235.06"
         id="path58" />
      <polygon
         fill="black"
         stroke="black"
         points="135.8,-237.5 139.53,-227.58 130.43,-233 135.8,-237.5"
         id="polygon58" />
    </g>
    <!-- 14&#45;&gt;5 -->
    <g
       id="edge42"
       class="edge">
      <title
         id="title59">14-&gt;5</title>
      <path
         fill="none"
         stroke="black"
         d="M464.09,-315.77C464.94,-326.53 465.08,-339.56 464.53,-351.11"
         id="path59" />
      <polygon
         fill="black"
         stroke="black"
         points="461.05,-350.7 463.81,-360.93 468.03,-351.21 461.05,-350.7"
         id="polygon59" />
    </g>
    <!-- 14&#45;&gt;16 -->
    <g
       id="edge40"
       class="edge">
      <title
         id="title60">14-&gt;16</title>
      <path
         fill="none"
         stroke="black"
         d="M479.17,-281.26C496.69,-271.52 520.43,-255 531.11,-232.71 537.91,-218.51 535.99,-101.31 529.11,-91.62 500.12,-50.78 441.15,-36.48 401.62,-31.48"
         id="path60" />
      <polygon
         fill="black"
         stroke="black"
         points="402.11,-28.01 391.79,-30.39 401.34,-34.97 402.11,-28.01"
         id="polygon60" />
    </g>
    <!-- 14&#45;&gt;18 -->
    <g
       id="edge41"
       class="edge">
      <title
         id="title61">14-&gt;18</title>
      <path
         fill="none"
         stroke="black"
         d="M458.11,-268.37C458.11,-260.99 458.11,-252.61 458.11,-244.42"
         id="path61" />
      <polygon
         fill="black"
         stroke="black"
         points="461.61,-244.62 458.11,-234.62 454.61,-244.62 461.61,-244.62"
         id="polygon61" />
    </g>
    <!-- 15&#45;&gt;9 -->
    <g
       id="edge45"
       class="edge">
      <title
         id="title62">15-&gt;9</title>
      <path
         fill="none"
         stroke="black"
         d="M260.55,-54.55C261.46,-62.99 262.02,-72.5 262.15,-81.43"
         id="path62" />
      <polygon
         fill="black"
         stroke="black"
         points="258.65,-81.15 262.08,-91.17 265.65,-81.2 258.65,-81.15"
         id="polygon62" />
    </g>
    <!-- 15&#45;&gt;15 -->
    <g
       id="edge43"
       class="edge">
      <title
         id="title63">15-&gt;15</title>
      <path
         fill="none"
         stroke="black"
         d="M279.63,-36.03C289.88,-36.39 298.4,-33.65 298.4,-27.81 298.4,-24.34 295.4,-21.96 290.81,-20.68"
         id="path63" />
      <polygon
         fill="black"
         stroke="black"
         points="291.43,-17.22 281.13,-19.73 290.75,-24.19 291.43,-17.22"
         id="polygon63" />
    </g>
    <!-- 15&#45;&gt;15 -->
    <g
       id="edge44"
       class="edge">
      <title
         id="title64">15-&gt;15</title>
      <path
         fill="none"
         stroke="black"
         d="M276.81,-41.9C296.23,-47.72 316.4,-43.03 316.4,-27.81 316.4,-15.44 303.09,-10.03 287.67,-11.55"
         id="path64" />
      <polygon
         fill="black"
         stroke="black"
         points="287.41,-8.04 278.29,-13.42 288.78,-14.9 287.41,-8.04"
         id="polygon64" />
    </g>
    <!-- 16&#45;&gt;11 -->
    <g
       id="edge48"
       class="edge">
      <title
         id="title65">16-&gt;11</title>
      <path
         fill="none"
         stroke="black"
         d="M367.16,-55.49C367.26,-63.7 366.93,-72.83 366.26,-81.43"
         id="path65" />
      <polygon
         fill="black"
         stroke="black"
         points="362.8,-80.88 365.28,-91.18 369.76,-81.58 362.8,-80.88"
         id="polygon65" />
    </g>
    <!-- 16&#45;&gt;16 -->
    <g
       id="edge46"
       class="edge">
      <title
         id="title66">16-&gt;16</title>
      <path
         fill="none"
         stroke="black"
         d="M388.93,-36.03C399.3,-36.39 407.92,-33.65 407.92,-27.81 407.92,-24.34 404.88,-21.96 400.24,-20.68"
         id="path66" />
      <polygon
         fill="black"
         stroke="black"
         points="400.72,-17.21 390.43,-19.73 400.05,-24.18 400.72,-17.21"
         id="polygon66" />
    </g>
    <!-- 16&#45;&gt;16 -->
    <g
       id="edge47"
       class="edge">
      <title
         id="title67">16-&gt;16</title>
      <path
         fill="none"
         stroke="black"
         d="M386.33,-41.99C405.81,-47.67 425.92,-42.94 425.92,-27.81 425.92,-15.51 412.64,-10.09 397.22,-11.53"
         id="path67" />
      <polygon
         fill="black"
         stroke="black"
         points="396.98,-8.01 387.82,-13.34 398.3,-14.88 396.98,-8.01"
         id="polygon67" />
    </g>
    <!-- 17&#45;&gt;10 -->
    <g
       id="edge51"
       class="edge">
      <title
         id="title68">17-&gt;10</title>
      <path
         fill="none"
         stroke="black"
         d="M151.22,-176.95C150.54,-168.68 150.22,-159.44 150.28,-150.73"
         id="path68" />
      <polygon
         fill="black"
         stroke="black"
         points="153.78,-150.94 150.58,-140.84 146.78,-150.73 153.78,-150.94"
         id="polygon68" />
    </g>
    <!-- 17&#45;&gt;17 -->
    <g
       id="edge49"
       class="edge">
      <title
         id="title69">17-&gt;17</title>
      <path
         fill="none"
         stroke="black"
         d="M184.93,-212.61C195.3,-212.97 203.92,-210.23 203.92,-204.39 203.92,-200.92 200.88,-198.54 196.24,-197.26"
         id="path69" />
      <polygon
         fill="black"
         stroke="black"
         points="196.72,-193.79 186.43,-196.31 196.05,-200.76 196.72,-193.79"
         id="polygon69" />
    </g>
    <!-- 17&#45;&gt;17 -->
    <g
       id="edge50"
       class="edge">
      <title
         id="title70">17-&gt;17</title>
      <path
         fill="none"
         stroke="black"
         d="M182.33,-218.57C201.81,-224.25 221.92,-219.52 221.92,-204.39 221.92,-192.09 208.64,-186.67 193.22,-188.11"
         id="path70" />
      <polygon
         fill="black"
         stroke="black"
         points="192.98,-184.59 183.82,-189.92 194.3,-191.46 192.98,-184.59"
         id="polygon70" />
    </g>
    <!-- 18&#45;&gt;12 -->
    <g
       id="edge54"
       class="edge">
      <title
         id="title71">18-&gt;12</title>
      <path
         fill="none"
         stroke="black"
         d="M452.43,-176.48C452.15,-168.45 452.25,-159.54 452.7,-151.11"
         id="path71" />
      <polygon
         fill="black"
         stroke="black"
         points="456.19,-151.4 453.44,-141.16 449.21,-150.87 456.19,-151.4"
         id="polygon71" />
    </g>
    <!-- 18&#45;&gt;18 -->
    <g
       id="edge52"
       class="edge">
      <title
         id="title72">18-&gt;18</title>
      <path
         fill="none"
         stroke="black"
         d="M485.69,-212.62C495.97,-212.89 504.43,-210.15 504.43,-204.39 504.43,-200.97 501.44,-198.61 496.87,-197.32"
         id="path72" />
      <polygon
         fill="black"
         stroke="black"
         points="497.5,-193.86 487.19,-196.31 496.78,-200.83 497.5,-193.86"
         id="polygon72" />
    </g>
    <!-- 18&#45;&gt;18 -->
    <g
       id="edge53"
       class="edge">
      <title
         id="title73">18-&gt;18</title>
      <path
         fill="none"
         stroke="black"
         d="M482.86,-218.67C502.39,-224.19 522.43,-219.43 522.43,-204.39 522.43,-192.16 509.2,-186.73 493.76,-188.08"
         id="path73" />
      <polygon
         fill="black"
         stroke="black"
         points="493.54,-184.57 484.35,-189.83 494.82,-191.45 493.54,-184.57"
         id="polygon73" />
    </g>
  </g>
</svg>
