<?xml version="1.0" encoding="UTF-8" standalone="no"?>
<!-- Generated by graphviz version 14.1.5 (20260411.2331)
 -->

<!-- Title: DClasses Pages: 1 -->

<svg
   width="137pt"
   height="483pt"
   viewBox="0.00 0.00 137.00 483.00"
   version="1.1"
   id="svg27"
   sodipodi:docname="T3_egg_box_light.svg"
   inkscape:version="1.4.4 (dcaf3e7, 2026-05-05)"
   xmlns:inkscape="http://www.inkscape.org/namespaces/inkscape"
   xmlns:sodipodi="http://sodipodi.sourceforge.net/DTD/sodipodi-0.dtd"
   xmlns="http://www.w3.org/2000/svg"
   xmlns:svg="http://www.w3.org/2000/svg">
  <defs
     id="defs27" />
  <sodipodi:namedview
     id="namedview27"
     pagecolor="#ffffff"
     bordercolor="#000000"
     borderopacity="0.25"
     inkscape:showpageshadow="2"
     inkscape:pageopacity="0.0"
     inkscape:pagecheckerboard="0"
     inkscape:deskcolor="#d1d1d1"
     inkscape:document-units="pt"
     inkscape:zoom="0.040372671"
     inkscape:cx="86.692308"
     inkscape:cy="322"
     inkscape:window-width="1280"
     inkscape:window-height="803"
     inkscape:window-x="0"
     inkscape:window-y="29"
     inkscape:window-maximized="0"
     inkscape:current-layer="svg27" />
  <g
     id="graph0"
     class="graph"
     transform="scale(1 1) rotate(0) translate(4 479)">
    <title
       id="title1">DClasses</title>
    <polygon
       fill="none"
       stroke="none"
       points="-4,4 -4,-479 133.25,-479 133.25,4 -4,4"
       id="polygon1" />
    <!-- 1 -->
    <g
       id="node1"
       class="node">
      <title
         id="title2">1</title>
      <text fill="rgb(88%, 89%, 91%)"
         xml:space="preserve"
         text-anchor="start"
         x="59.38"
         y="-448.25"
         font-family="Times,serif"
         font-size="14.00"
         id="text2"> 1</text>
      <polygon
         fill="gray"
         stroke="none"
         points="46.5,-396 46.5,-434.5 82.75,-434.5 82.75,-396 46.5,-396"
         id="polygon2" />
      <polygon
         fill="none"
         stroke="rgb(88%, 89%, 91%)"
         points="46.5,-396 46.5,-434.5 82.75,-434.5 82.75,-396 46.5,-396"
         id="polygon3" />
      <text fill="rgb(88%, 89%, 91%)"
         xml:space="preserve"
         text-anchor="start"
         x="57.5"
         y="-410.75"
         font-family="Times,serif"
         font-size="14.00"
         id="text3">S3</text>
    </g>
    <!-- 2 -->
    <g
       id="node2"
       class="node">
      <title
         id="title3">2</title>
      <text fill="rgb(88%, 89%, 91%)"
         xml:space="preserve"
         text-anchor="start"
         x="59.38"
         y="-329.25"
         font-family="Times,serif"
         font-size="14.00"
         id="text4"> 2</text>
      <polygon
         fill="gray"
         stroke="none"
         points="8,-277 8,-315.5 45.75,-315.5 45.75,-277 8,-277"
         id="polygon4" />
      <polygon
         fill="none"
         stroke="rgb(88%, 89%, 91%)"
         points="8,-277 8,-315.5 45.75,-315.5 45.75,-277 8,-277"
         id="polygon5" />
      <text fill="rgb(88%, 89%, 91%)"
         xml:space="preserve"
         text-anchor="start"
         x="19"
         y="-291.75"
         font-family="Times,serif"
         font-size="14.00"
         id="text5">C2</text>
      <polygon
         fill="gray"
         stroke="none"
         points="45.75,-277 45.75,-315.5 83.5,-315.5 83.5,-277 45.75,-277"
         id="polygon6" />
      <polygon
         fill="none"
         stroke="rgb(88%, 89%, 91%)"
         points="45.75,-277 45.75,-315.5 83.5,-315.5 83.5,-277 45.75,-277"
         id="polygon7" />
      <text fill="rgb(88%, 89%, 91%)"
         xml:space="preserve"
         text-anchor="start"
         x="56.75"
         y="-291.75"
         font-family="Times,serif"
         font-size="14.00"
         id="text7">C2</text>
      <polygon
         fill="white"
         stroke="none"
         points="83.5,-277 83.5,-315.5 121.25,-315.5 121.25,-277 83.5,-277"
         id="polygon8" />
      <polygon
         fill="none"
         stroke="rgb(88%, 89%, 91%)"
         points="83.5,-277 83.5,-315.5 121.25,-315.5 121.25,-277 83.5,-277"
         id="polygon9" />
      <polygon
         fill="gray"
         stroke="none"
         points="8,-238.5 8,-277 45.75,-277 45.75,-238.5 8,-238.5"
         id="polygon10" />
      <polygon
         fill="none"
         stroke="rgb(88%, 89%, 91%)"
         points="8,-238.5 8,-277 45.75,-277 45.75,-238.5 8,-238.5"
         id="polygon11" />
      <text fill="rgb(88%, 89%, 91%)"
         xml:space="preserve"
         text-anchor="start"
         x="19"
         y="-253.25"
         font-family="Times,serif"
         font-size="14.00"
         id="text11">C2</text>
      <polygon
         fill="white"
         stroke="none"
         points="45.75,-238.5 45.75,-277 83.5,-277 83.5,-238.5 45.75,-238.5"
         id="polygon12" />
      <polygon
         fill="none"
         stroke="rgb(88%, 89%, 91%)"
         points="45.75,-238.5 45.75,-277 83.5,-277 83.5,-238.5 45.75,-238.5"
         id="polygon13" />
      <polygon
         fill="gray"
         stroke="none"
         points="83.5,-238.5 83.5,-277 121.25,-277 121.25,-238.5 83.5,-238.5"
         id="polygon14" />
      <polygon
         fill="none"
         stroke="rgb(88%, 89%, 91%)"
         points="83.5,-238.5 83.5,-277 121.25,-277 121.25,-238.5 83.5,-238.5"
         id="polygon15" />
      <text fill="rgb(88%, 89%, 91%)"
         xml:space="preserve"
         text-anchor="start"
         x="94.5"
         y="-253.25"
         font-family="Times,serif"
         font-size="14.00"
         id="text15">C2</text>
      <polygon
         fill="white"
         stroke="none"
         points="8,-200 8,-238.5 45.75,-238.5 45.75,-200 8,-200"
         id="polygon16" />
      <polygon
         fill="none"
         stroke="rgb(88%, 89%, 91%)"
         points="8,-200 8,-238.5 45.75,-238.5 45.75,-200 8,-200"
         id="polygon17" />
      <polygon
         fill="gray"
         stroke="none"
         points="45.75,-200 45.75,-238.5 83.5,-238.5 83.5,-200 45.75,-200"
         id="polygon18" />
      <polygon
         fill="none"
         stroke="rgb(88%, 89%, 91%)"
         points="45.75,-200 45.75,-238.5 83.5,-238.5 83.5,-200 45.75,-200"
         id="polygon19" />
      <text fill="rgb(88%, 89%, 91%)"
         xml:space="preserve"
         text-anchor="start"
         x="56.75"
         y="-214.75"
         font-family="Times,serif"
         font-size="14.00"
         id="text19">C2</text>
      <polygon
         fill="gray"
         stroke="none"
         points="83.5,-200 83.5,-238.5 121.25,-238.5 121.25,-200 83.5,-200"
         id="polygon20" />
      <polygon
         fill="none"
         stroke="rgb(88%, 89%, 91%)"
         points="83.5,-200 83.5,-238.5 121.25,-238.5 121.25,-200 83.5,-200"
         id="polygon21" />
      <text fill="rgb(88%, 89%, 91%)"
         xml:space="preserve"
         text-anchor="start"
         x="94.5"
         y="-214.75"
         font-family="Times,serif"
         font-size="14.00"
         id="text21">C2</text>
    </g>
    <!-- 1&#45;&gt;2 -->
    <g
       id="edge1"
       class="edge">
      <title
         id="title21">1-&gt;2</title>
      <path
         fill="none"
         stroke="rgb(88%, 89%, 91%)"
         d="M64.62,-391.64C64.62,-380.76 64.62,-368.61 64.62,-356.41"
         id="path21" />
    </g>
    <!-- 3 -->
    <g
       id="node3"
       class="node">
      <title
         id="title22">3</title>
      <text fill="rgb(88%, 89%, 91%)"
         xml:space="preserve"
         text-anchor="start"
         x="59.38"
         y="-133.25"
         font-family="Times,serif"
         font-size="14.00"
         id="text22"> 3</text>
      <polygon
         fill="gray"
         stroke="none"
         points="49.38,-81 49.38,-119.5 79.88,-119.5 79.88,-81 49.38,-81"
         id="polygon22" />
      <polygon
         fill="none"
         stroke="rgb(88%, 89%, 91%)"
         points="49.38,-81 49.38,-119.5 79.88,-119.5 79.88,-81 49.38,-81"
         id="polygon23" />
      <text fill="rgb(88%, 89%, 91%)"
         xml:space="preserve"
         text-anchor="start"
         x="61.25"
         y="-95.75"
         font-family="Times,serif"
         font-size="14.00"
         id="text23">1</text>
      <polygon
         fill="gray"
         stroke="none"
         points="49.38,-42.5 49.38,-81 79.88,-81 79.88,-42.5 49.38,-42.5"
         id="polygon24" />
      <polygon
         fill="none"
         stroke="rgb(88%, 89%, 91%)"
         points="49.38,-42.5 49.38,-81 79.88,-81 79.88,-42.5 49.38,-42.5"
         id="polygon25" />
      <text fill="rgb(88%, 89%, 91%)"
         xml:space="preserve"
         text-anchor="start"
         x="61.25"
         y="-57.25"
         font-family="Times,serif"
         font-size="14.00"
         id="text25">1</text>
      <polygon
         fill="gray"
         stroke="none"
         points="49.38,-4 49.38,-42.5 79.88,-42.5 79.88,-4 49.38,-4"
         id="polygon26" />
      <polygon
         fill="none"
         stroke="rgb(88%, 89%, 91%)"
         points="49.38,-4 49.38,-42.5 79.88,-42.5 79.88,-4 49.38,-4"
         id="polygon27" />
      <text fill="rgb(88%, 89%, 91%)"
         xml:space="preserve"
         text-anchor="start"
         x="61.25"
         y="-18.75"
         font-family="Times,serif"
         font-size="14.00"
         id="text27">1</text>
    </g>
    <!-- 2&#45;&gt;3 -->
    <g
       id="edge2"
       class="edge">
      <title
         id="title27">2-&gt;3</title>
      <path
         fill="none"
         stroke="rgb(88%, 89%, 91%)"
         d="M64.62,-195.53C64.62,-183.92 64.62,-171.96 64.62,-160.34"
         id="path27" />
    </g>
  </g>
</svg>
